<?xml version="1.0" standalone="no"?>
<!DOCTYPE svg PUBLIC "-//W3C//DTD SVG 20010904//EN"
 "http://www.w3.org/TR/2001/REC-SVG-20010904/DTD/svg10.dtd">
<svg version="1.0" xmlns="http://www.w3.org/2000/svg"
 width="1500.000000pt" height="1500.000000pt" viewBox="0 0 1500.000000 1500.000000"
 preserveAspectRatio="xMidYMid meet">
<metadata>
Created by potrace 1.14, written by Peter Selinger 2001-2017
</metadata>
<g transform="translate(0.000000,1500.000000) scale(0.100000,-0.100000)"
fill="#000000" stroke="none">
<path d="M7005 14699 c-1874 -65 -3700 -497 -5391 -1275 -325 -149 -365 -171
-359 -197 2 -12 14 -85 25 -162 127 -860 354 -1927 596 -2805 72 -258 200
-692 239 -810 l25 -75 -5 60 c-3 33 -12 123 -20 200 -69 676 -65 1440 11 2120
30 272 73 548 125 815 l31 156 127 106 c1692 1429 3861 2075 6061 1808 1471
-179 2875 -782 4031 -1732 69 -56 146 -121 171 -143 l46 -41 31 -154 c126
-629 182 -1234 182 -1940 0 -446 -9 -638 -52 -1048 -12 -107 -19 -195 -17
-197 5 -5 130 407 226 750 259 915 501 2038 632 2930 11 77 23 150 26 163 4
21 -10 30 -178 111 -2000 964 -4295 1440 -6563 1360z"/>
<path d="M8810 13411 c-1101 -443 -2077 -1135 -2855 -2026 -99 -113 -332 -401
-347 -428 -8 -16 -7 -17 11 -8 53 29 349 141 545 207 655 221 1264 343 1961
394 77 5 170 10 207 10 l66 0 7 118 c16 285 42 470 101 704 87 346 237 691
429 988 74 115 77 120 73 120 -2 0 -91 -36 -198 -79z"/>
<path d="M11933 12885 c-1265 -322 -2427 -971 -3362 -1880 -131 -127 -142
-135 -116 -90 50 88 176 288 232 368 l54 77 -118 0 c-278 0 -694 -30 -993 -71
-888 -121 -1753 -403 -2535 -826 -140 -76 -403 -230 -426 -250 -15 -12 -14
-21 8 -106 36 -138 53 -268 53 -408 0 -141 1 -139 -76 -139 -17 0 -165 -20
-330 -45 -840 -127 -1652 -290 -2444 -492 -184 -47 -347 -88 -362 -91 -16 -2
-28 -9 -29 -16 -5 -67 24 -335 52 -486 109 -569 342 -1064 714 -1516 59 -71
131 -165 160 -209 179 -268 290 -619 297 -942 1 -57 4 -63 22 -63 37 0 409
-30 506 -40 819 -91 1623 -308 2360 -637 165 -74 623 -303 617 -309 -2 -2 -46
14 -97 37 -448 194 -1087 384 -1622 482 l-78 15 0 -97 c0 -208 48 -474 129
-718 26 -79 45 -143 43 -143 -11 0 -206 134 -276 190 -117 93 -219 193 -411
405 -164 181 -313 326 -490 480 -44 38 -91 78 -103 90 -13 11 10 -34 51 -100
148 -238 275 -478 382 -720 72 -163 106 -252 207 -540 100 -288 150 -408 253
-610 409 -802 1047 -1435 1854 -1840 l95 -47 -162 157 c-364 354 -651 747
-855 1174 -73 155 -81 175 -64 165 38 -23 261 -197 393 -307 788 -657 1460
-1466 1944 -2339 l93 -168 56 62 c260 291 503 528 804 785 92 79 244 208 337
288 321 275 553 503 826 815 441 503 815 1051 1128 1651 47 90 86 161 86 157
0 -4 -13 -74 -30 -156 -75 -374 -208 -769 -376 -1121 -41 -85 -72 -156 -70
-158 9 -9 439 424 558 562 655 760 1100 1664 1298 2634 22 107 41 196 43 198
14 13 29 -284 24 -450 -3 -104 -4 -187 -2 -185 3 2 27 56 54 119 99 231 167
491 192 727 17 168 7 526 -20 675 -51 290 -142 548 -276 792 -30 54 -52 102
-47 105 4 4 63 21 132 39 167 44 365 118 532 198 l138 66 -43 36 c-77 64 -278
265 -356 356 -166 193 -324 426 -431 636 -34 66 -60 122 -58 124 2 2 49 15
106 29 116 30 258 73 285 88 15 8 -4 17 -100 49 -225 75 -529 240 -723 393
-106 83 -261 227 -270 251 -11 29 31 405 75 670 121 726 354 1445 675 2085 34
67 60 124 58 125 -2 2 -81 -16 -175 -40z m-5442 -3316 c35 -6 65 -12 67 -14 6
-6 -69 -118 -128 -190 -170 -206 -388 -356 -643 -440 -171 -56 -155 -59 -204
37 -23 46 -77 141 -119 211 -42 71 -75 130 -73 131 19 17 160 101 219 131 144
72 368 133 550 149 65 6 257 -3 331 -15z"/>
</g>
</svg>
